<svg width="70" height="70" viewBox="0 0 70 70" fill="none" xmlns="http://www.w3.org/2000/svg">
<path d="M34.9231 0C15.6666 0 0 15.6666 0 34.9231C0 54.1796 15.6666 69.8462 34.9231 69.8462C54.1796 69.8462 69.8462 54.1796 69.8462 34.9231C69.8462 15.6666 54.1796 0 34.9231 0ZM34.9231 67.3216C17.0584 67.3216 2.52456 52.7877 2.52456 34.9231C2.52456 17.0584 17.0584 2.52456 34.9231 2.52456C52.7877 2.52456 67.3216 17.0584 67.3216 34.9231C67.3216 52.7877 52.7877 67.3216 34.9231 67.3216Z" fill="white"/>
<path d="M34.9232 5.5658C18.7357 5.5658 5.56592 18.7356 5.56592 34.9231C5.56592 51.1105 18.7357 64.2803 34.9232 64.2803C35.6191 64.2803 36.1855 63.714 36.1855 63.018C36.1855 62.3221 35.6191 61.7558 34.9232 61.7558C20.1276 61.7558 8.09048 49.7187 8.09048 34.9231C8.09048 20.1275 20.1276 8.09036 34.9232 8.09036C49.7188 8.09036 61.7567 20.1275 61.7567 34.9231C61.7567 35.619 62.3231 36.1853 63.019 36.1853C63.7149 36.1853 64.2813 35.619 64.2813 34.9231C64.2813 18.7356 51.1107 5.5658 34.9232 5.5658Z" fill="white"/>
</svg>
